<svg width="512" height="512" viewBox="0 0 512 512" fill="none" xmlns="http://www.w3.org/2000/svg">
<circle cx="256" cy="256" r="256" fill="#F5F2EC"/>
<path d="M295.115 187.82L303.904 269.734L360.594 187.82H402.342L401.287 191.072C395.545 191.072 391.18 192.303 388.191 194.764C385.203 197.225 382.654 202.088 380.545 209.354L358.572 285.643C357.166 290.447 356.463 294.021 356.463 296.365C356.463 298.533 357.342 300.291 359.1 301.639C360.857 302.928 364.314 303.631 369.471 303.748L368.68 307H309.178L310.232 303.748C316.619 303.748 321.336 302.547 324.383 300.145C327.43 297.684 330.008 292.85 332.117 285.643L354.529 208.387L286.326 307H282.723L272 206.453L249.236 285.643C248.299 288.865 247.83 291.561 247.83 293.729C247.83 296.658 248.826 299.031 250.818 300.848C252.869 302.605 256.326 303.572 261.189 303.748L260.311 307H220.936L221.727 303.748C226.473 303.572 230.105 302.576 232.625 300.76C237.078 297.479 240.301 292.439 242.293 285.643L268.045 197.576C265.584 194.881 263.357 193.123 261.365 192.303C259.432 191.482 256.15 191.072 251.521 191.072L252.576 187.82H295.115Z" fill="#393D5D"/>
<path d="M248.141 200.551L238.375 242.641H234.566C234.111 231.182 231.279 222.654 226.07 217.055C220.927 211.391 214.189 208.559 205.855 208.559C196.871 208.559 187.919 212.4 179 220.082C170.081 227.764 162.529 239.516 156.344 255.336C151.331 268.161 148.824 280.824 148.824 293.324C148.824 304.522 151.559 313.083 157.027 319.008C162.561 324.867 170.113 327.797 179.684 327.797C187.431 327.797 194.495 326.104 200.875 322.719C207.255 319.333 213.701 313.832 220.211 306.215H224.898C216.826 318.324 208.655 326.82 200.387 331.703C192.184 336.586 182.125 339.027 170.211 339.027C154.26 339.027 141.402 334.21 131.637 324.574C121.936 314.874 117.086 302.243 117.086 286.684C117.086 272.1 120.96 258.201 128.707 244.984C136.454 231.703 147.587 220.993 162.105 212.855C176.689 204.652 191.174 200.551 205.562 200.551C211.031 200.551 217.835 201.723 225.973 204.066C230.139 205.238 233.036 205.824 234.664 205.824C237.919 205.824 241.207 204.066 244.527 200.551H248.141Z" fill="#393D5D"/>
</svg>
